<?xml version="1.0" encoding="UTF-8" standalone="no"?>
<svg width="255px" height="57px" viewBox="0 0 255 57" version="1.1" xmlns="http://www.w3.org/2000/svg" xmlns:xlink="http://www.w3.org/1999/xlink">
    <!-- Generator: Sketch 39.1 (31720) - http://www.bohemiancoding.com/sketch -->
    <title>Outline</title>
    <desc>Created with Sketch.</desc>
    <defs></defs>
    <g id="Page-1" stroke="none" stroke-width="1" fill="none" fill-rule="evenodd">
        <g id="Desktop-HD-Copy" transform="translate(-594.000000, -271.000000)" fill="#2F2F2F">
            <path d="M618.083823,276.81 C625.083858,276.81 630.508804,278.991645 634.358823,283.355 C638.208843,287.718355 640.133823,293.819961 640.133823,301.66 C640.133823,309.546706 637.975512,315.893309 633.658823,320.7 C629.342135,325.506691 623.683858,327.91 616.683823,327.91 C609.683788,327.91 604.317175,325.763355 600.583823,321.47 C596.850471,317.176645 594.983823,310.923374 594.983823,302.71 C594.983823,294.683293 597.048803,288.360023 601.178823,283.74 C605.308844,279.119977 610.943788,276.81 618.083823,276.81 L618.083823,276.81 Z M617.733823,285.56 C614.093805,285.56 611.340499,286.854987 609.473823,289.445 C607.607147,292.035013 606.673823,296.33997 606.673823,302.36 C606.673823,308.100029 607.525481,312.334986 609.228823,315.065 C610.932165,317.795014 613.533806,319.16 617.033823,319.16 C620.720508,319.16 623.532147,317.818347 625.468823,315.135 C627.4055,312.451653 628.373823,308.076697 628.373823,302.01 C628.373823,296.316638 627.487166,292.15168 625.713823,289.515 C623.940481,286.87832 621.280508,285.56 617.733823,285.56 L617.733823,285.56 Z M649.225588,315.17 L649.225588,296.62 L644.115588,295.36 L644.115588,289.76 L659.585588,289.2 L659.585588,313.21 C659.585588,315.123343 659.888918,316.534995 660.495588,317.445 C661.102258,318.355005 662.105581,318.81 663.505588,318.81 C664.812261,318.81 666.153915,318.495003 667.530588,317.865 C668.907262,317.234997 669.968918,316.593337 670.715588,315.94 L671.765588,314.96 L671.765588,296.62 L666.585588,295.36 L666.585588,289.76 L682.055588,289.2 L682.055588,319.65 L687.375588,321.05 L687.375588,326.51 L673.095588,327 L672.395588,322.1 C672.255587,322.240001 672.033923,322.438332 671.730588,322.695 C671.427253,322.951668 670.832259,323.406663 669.945588,324.06 C669.058917,324.713337 668.148926,325.284998 667.215588,325.775 C666.28225,326.265002 665.150595,326.708331 663.820588,327.105 C662.490581,327.501669 661.218927,327.7 660.005588,327.7 C656.505571,327.7 653.833931,326.603344 651.990588,324.41 C650.147246,322.216656 649.225588,319.136686 649.225588,315.17 L649.225588,315.17 Z M705.707353,327.7 C701.834,327.7 699.174027,326.451679 697.727353,323.955 C696.280679,321.458321 695.557353,317.106698 695.557353,310.9 L695.557353,297.81 L689.047353,297.81 L689.047353,291.16 L695.557353,290.25 L695.557353,280.59 L705.847353,278.7 L705.847353,290.25 L715.647353,290.25 L715.647353,297.81 L705.847353,297.81 L705.847353,313.63 C705.847353,315.963345 706.104017,317.596662 706.617353,318.53 C707.130689,319.463338 708.110679,319.93 709.557353,319.93 C711.237361,319.93 713.080676,319.393339 715.087353,318.32 L717.607353,323.36 C713.500666,326.253348 709.534039,327.7 705.707353,327.7 L705.707353,327.7 Z M719.209118,273.31 L735.379118,272.75 L735.379118,319.65 L742.029118,321.4 L742.029118,327 L719.209118,327 L719.209118,321.4 L724.809118,319.65 L724.809118,280.31 L719.209118,278.91 L719.209118,273.31 Z M743.980882,289.76 L759.870882,289.2 L759.870882,319.65 L764.770882,321.4 L764.770882,327 L743.980882,327 L743.980882,321.4 L749.580882,319.65 L749.580882,296.76 L743.980882,295.36 L743.980882,289.76 Z M748.250882,277.65 C748.250882,275.736657 748.845876,274.208339 750.035882,273.065 C751.225888,271.921661 752.637541,271.35 754.270882,271.35 C758.190902,271.35 760.150882,273.449979 760.150882,277.65 C760.150882,279.61001 759.555888,281.161661 758.365882,282.305 C757.175876,283.448339 755.81089,284.02 754.270882,284.02 C752.357539,284.02 750.875888,283.471672 749.825882,282.375 C748.775877,281.278328 748.250882,279.703344 748.250882,277.65 L748.250882,277.65 Z M768.052647,289.76 L782.542647,289.2 L783.032647,294.03 C783.545983,293.609998 784.222643,293.108336 785.062647,292.525 C785.902651,291.941664 787.454302,291.148338 789.717647,290.145 C791.980992,289.141662 794.045971,288.64 795.912647,288.64 C799.272664,288.64 801.850971,289.748322 803.647647,291.965 C805.444323,294.181678 806.342647,297.226647 806.342647,301.1 L806.342647,319.65 C806.949317,319.836668 807.812642,320.139998 808.932647,320.56 C810.052653,320.980002 810.822645,321.259999 811.242647,321.4 L811.242647,327 L792.342647,327 L792.342647,321.4 L796.052647,319.65 L796.052647,302.71 C796.052647,301.076659 795.620985,299.735005 794.757647,298.685 C793.894309,297.634995 792.739321,297.11 791.292647,297.11 C789.985974,297.11 788.71432,297.44833 787.477647,298.125 C786.240974,298.80167 785.319317,299.466663 784.712647,300.12 L783.802647,301.1 L783.802647,319.65 L787.442647,321.4 L787.442647,327 L768.052647,327 L768.052647,321.4 L773.442647,319.65 L773.442647,296.76 L768.052647,295.36 L768.052647,289.76 Z M848.544412,310.2 L825.304412,310.41 C825.49108,313.303348 826.342738,315.543325 827.859412,317.13 C829.376086,318.716675 831.3244,319.51 833.704412,319.51 C835.431087,319.51 837.274402,319.241669 839.234412,318.705 C841.194422,318.168331 842.711073,317.620003 843.784412,317.06 L845.464412,316.22 L848.474412,321.82 C847.961076,322.240002 847.23775,322.776663 846.304412,323.43 C845.371074,324.083337 843.504426,324.958328 840.704412,326.055 C837.904398,327.151672 835.174425,327.7 832.514412,327.7 C826.587716,327.7 822.072761,326.055016 818.969412,322.765 C815.866063,319.474984 814.314412,314.82003 814.314412,308.8 C814.314412,302.593302 815.971062,297.658352 819.284412,293.995 C822.597762,290.331648 827.171049,288.5 833.004412,288.5 C838.137771,288.5 842.081065,289.969985 844.834412,292.91 C847.587759,295.850015 848.964412,299.863308 848.964412,304.95 L848.544412,310.2 Z M832.304412,296.69 C830.391069,296.69 828.839418,297.343327 827.649412,298.65 C826.459406,299.956673 825.724413,301.706656 825.444412,303.9 L838.044412,303.9 C838.044412,299.093309 836.131098,296.69 832.304412,296.69 L832.304412,296.69 Z" id="Outline"></path>
        </g>
    </g>
</svg>